<svg xmlns="http://www.w3.org/2000/svg" xmlns:xlink="http://www.w3.org/1999/xlink" version="1.1" x="0px" y="0px" viewBox="0 0 100 125" enable-background="new 0 0 100 100" xml:space="preserve"><path d="M86,68h-0.459l-4.747-28.478C80.07,35.164,76.338,32,71.917,32H65v-6h12c1.658,0,3-1.343,3-3V11  c0-1.657-1.342-3-3-3H47c-1.658,0-3,1.343-3,3v12c0,1.657,1.342,3,3,3h12v6H28.083c-4.421,0-8.153,3.164-8.877,7.521L14.459,68H14  c-3.308,0-6,2.691-6,6v12c0,3.309,2.692,6,6,6h72c3.308,0,6-2.691,6-6V74C92,70.691,89.308,68,86,68z M50,20v-6h24v6H50z   M25.124,40.506C25.364,39.053,26.609,38,28.083,38h43.834c1.474,0,2.719,1.053,2.959,2.508L79.458,68H20.542L25.124,40.506z M14,86  V74c65.79,0,44.865,0,72,0l0.003,12H14z"/><path d="M71,47c0,1.657-1.342,3-3,3H56c-1.658,0-3-1.343-3-3s1.342-3,3-3h12C69.658,44,71,45.343,71,47z"/><path d="M71,59c0,1.657-1.342,3-3,3H56c-1.658,0-3-1.343-3-3s1.342-3,3-3h12C69.658,56,71,57.343,71,59z"/><path d="M44,44H32c-1.658,0-3,1.343-3,3v12c0,1.657,1.342,3,3,3h12c1.658,0,3-1.343,3-3V47  C47,45.343,45.658,44,44,44z M41,56h-6v-6h6V56z"/></svg>