<svg xmlns="http://www.w3.org/2000/svg" xmlns:xlink="http://www.w3.org/1999/xlink" version="1.1" x="0px" y="0px" viewBox="0 0 100 125" enable-background="new 0 0 100 100" xml:space="preserve"><path d="M92,75.5v9c0,2.481-2.019,4.5-4.5,4.5h-75C10.019,89,8,86.981,8,84.5v-9c0-2.481,2.019-4.5,4.5-4.5h75  C89.981,71,92,73.019,92,75.5z"/><path d="M80.794,36.522C80.07,32.164,76.338,29,71.917,29H68v-6h10.5c0.828,0,1.5-0.672,1.5-1.5v-9  c0-0.829-0.672-1.5-1.5-1.5h-27c-0.828,0-1.5,0.671-1.5,1.5v9c0,0.828,0.672,1.5,1.5,1.5H62v6H28.083  c-4.421,0-8.153,3.164-8.877,7.521L14.459,65h71.082L80.794,36.522z M47,54.5c0,0.828-0.672,1.5-1.5,1.5h-18  c-0.828,0-1.5-0.672-1.5-1.5v-15c0-0.829,0.672-1.5,1.5-1.5h18c0.828,0,1.5,0.671,1.5,1.5V54.5z M62,56h-6v-6h6V56z M62,44h-6v-6h6  V44z M74,56h-6v-6h6V56z M74,44h-6v-6h6V44z"/></svg>